HIERARCHY
ROOT Hips
{
	OFFSET 52.427502 -16.807114 85.298103
	CHANNELS 6 Xposition Yposition Zposition Xrotation Yrotation Zrotation
	JOINT spine
	{
		OFFSET 0.000000 -0.367607 6.392601
		CHANNELS 3 Xrotation Yrotation Zrotation
		JOINT spine1
		{
			OFFSET 0.000000 -0.000002 9.176109
			CHANNELS 3 Xrotation Yrotation Zrotation
			JOINT spine2
			{
				OFFSET 0.000000 0.000000 8.792381
				CHANNELS 3 Xrotation Yrotation Zrotation
				JOINT Neck
				{
					OFFSET 0.000000 -1.076244 22.573700
					CHANNELS 3 Xrotation Yrotation Zrotation
					JOINT Head
					{
						OFFSET 0.000000 -0.000002 6.820114
						CHANNELS 3 Xrotation Yrotation Zrotation
						End Site
						{
							OFFSET 0.000000 5.444267 16.508499
						}
					}
				}
				JOINT RightShoulder
				{
					OFFSET -3.702209 0.515507 9.495087
					CHANNELS 3 Xrotation Yrotation Zrotation
					JOINT RightArm
					{
						OFFSET 0.000000 -0.000002 12.453705
						CHANNELS 3 Xrotation Yrotation Zrotation
						JOINT RightArmRoll
						{
							OFFSET 0.000000 -0.000002 6.286865
							CHANNELS 3 Xrotation Yrotation Zrotation
							JOINT RightForeArm
							{
								OFFSET 0.000000 -0.000002 18.311401
								CHANNELS 3 Xrotation Yrotation Zrotation
								JOINT RightForeArmRoll
								{
									OFFSET 0.000000 -0.000002 7.054825
									CHANNELS 3 Xrotation Yrotation Zrotation
									JOINT RightHand
									{
										OFFSET 0.000000 -0.000002 14.157501
										CHANNELS 3 Xrotation Yrotation Zrotation
										End Site
										{
											OFFSET 0.000000 0.000000 0.100006
										}
									}
								}
							}
						}
					}
				}
				JOINT LeftShoulder
				{
					OFFSET 3.702209 0.515507 9.495087
					CHANNELS 3 Xrotation Yrotation Zrotation
					JOINT LeftArm
					{
						OFFSET 0.000000 -0.000002 12.453705
						CHANNELS 3 Xrotation Yrotation Zrotation
						JOINT LeftArmRoll
						{
							OFFSET 0.000000 -0.000002 6.286865
							CHANNELS 3 Xrotation Yrotation Zrotation
							JOINT LeftForeArm
							{
								OFFSET 0.000000 -0.000002 18.311401
								CHANNELS 3 Xrotation Yrotation Zrotation
								JOINT LeftForeArmRoll
								{
									OFFSET 0.000000 -0.000002 7.054825
									CHANNELS 3 Xrotation Yrotation Zrotation
									JOINT LeftHand
									{
										OFFSET 0.000000 -0.000002 14.157501
										CHANNELS 3 Xrotation Yrotation Zrotation
										End Site
										{
											OFFSET 0.000000 0.000000 0.100006
										}
									}
								}
							}
						}
					}
				}
			}
		}
	}
	JOINT RightUpLeg
	{
		OFFSET -5.666161 0.871610 -1.039032
		CHANNELS 3 Xrotation Yrotation Zrotation
		JOINT RightUpLegRoll
		{
			OFFSET 0.000000 -0.000003 16.600502
			CHANNELS 3 Xrotation Yrotation Zrotation
			JOINT RightLeg
			{
				OFFSET 0.000000 0.000003 -20.557198
				CHANNELS 3 Xrotation Yrotation Zrotation
				JOINT RightLegRoll
				{
					OFFSET 0.000000 -0.000003 20.624397
					CHANNELS 3 Xrotation Yrotation Zrotation
					JOINT RightFoot
					{
						OFFSET 0.000000 -0.000003 17.166397
						CHANNELS 3 Xrotation Yrotation Zrotation
						JOINT RightToeBase
						{
							OFFSET 0.000000 -0.000003 14.350204
							CHANNELS 3 Xrotation Yrotation Zrotation
							End Site
							{
								OFFSET 0.006081 0.801060 6.949707
							}
						}
					}
				}
			}
		}
	}
	JOINT LeftUpLeg
	{
		OFFSET 5.666161 0.871610 -1.039032
		CHANNELS 3 Xrotation Yrotation Zrotation
		JOINT LeftUpLegRoll
		{
			OFFSET 0.000000 -0.000003 16.600601
			CHANNELS 3 Xrotation Yrotation Zrotation
			JOINT LeftLeg
			{
				OFFSET 0.000000 -0.000004 20.557098
				CHANNELS 3 Xrotation Yrotation Zrotation
				JOINT LeftLegRoll
				{
					OFFSET 0.000000 -0.000003 20.815102
					CHANNELS 3 Xrotation Yrotation Zrotation
					JOINT LeftFoot
					{
						OFFSET 0.000000 -0.000003 16.975708
						CHANNELS 3 Xrotation Yrotation Zrotation
						JOINT LeftToeBase
						{
							OFFSET 0.000000 -0.000003 14.350204
							CHANNELS 3 Xrotation Yrotation Zrotation
							End Site
							{
								OFFSET -0.027260 0.801060 6.949707
							}
						}
					}
				}
			}
		}
	}
}
MOTION
Frames: 10
Frame Time: 0.041667
49.974804 -10.654412 92.080803 6.432067 -3.652179 -1.022039 -2.395692 0.763358 -0.239751 -0.785671 1.534176 -0.455058 0.859628 1.528628 -0.473410 14.552273 13.119428 1.210849 6.989473 -9.326037 1.510783 -19.697967 -30.947632 -23.521059 -116.775854 -120.187342 -74.682067 0.000003 -0.000001 -0.000006 27.468311 5.735240 -1.361072 0.000002 0.000001 -3.000091 -5.000213 -7.998854 0.000177 -26.865304 26.899827 34.087152 -118.028865 120.769206 86.841416 -0.000000 -0.000005 0.000003 31.648505 -6.540955 0.903008 -0.000001 0.000001 3.000000 -5.000218 7.998721 -0.000173 -15.495906 192.974086 1.991567 -179.999991 0.000006 -1.146006 158.813523 -0.802808 -1.200156 0.000002 -0.000001 0.178878 67.077649 6.827952 2.415922 25.456953 -7.355613 0.000008 -13.754807 -186.050760 1.116958 -0.000005 -0.000003 -1.106110 -20.040697 -0.018401 0.615980 0.000001 -0.000004 -0.128244 66.451163 -6.943021 -2.172335 25.456953 7.355611 0.000002 
50.033802 -10.689913 92.127495 6.414292 -3.693806 -1.032675 -2.384581 0.762587 -0.238874 -0.763473 1.532564 -0.453476 0.881827 1.527039 -0.471809 14.558874 13.148573 1.214019 6.925282 -9.317782 1.505779 -19.569073 -31.073471 -23.337074 -116.138050 -119.812965 -74.302841 0.000003 0.000000 -0.000006 26.671993 5.735312 -1.350902 0.000006 0.000001 -3.000092 -5.000214 -7.998855 0.000171 -26.875811 27.285038 34.066637 -117.740208 120.368997 86.771379 -0.000001 -0.000003 0.000004 31.471282 -6.433172 0.905731 -0.000003 0.000000 3.000000 -5.000220 7.998722 -0.000168 -15.595868 192.834559 2.001414 -179.999991 0.000007 -1.139995 158.674379 -0.910113 -1.225285 0.000002 -0.000000 0.187149 67.125125 6.822324 2.427032 25.456953 -7.355613 0.000009 -13.807348 -185.799683 1.164282 -0.000005 -0.000003 -1.100750 -20.187210 0.070805 0.637907 0.000001 -0.000004 -0.137737 66.502950 -6.936405 -2.185076 25.456955 7.355612 0.000001 
50.032005 -10.672217 92.128502 6.396058 -3.733194 -1.042879 -2.373410 0.761516 -0.237966 -0.741129 1.530352 -0.451843 0.904171 1.524840 -0.470150 14.566010 13.174582 1.216625 6.860603 -9.308424 1.500357 -19.435665 -31.208282 -23.148186 -115.491341 -119.442892 -73.907920 0.000003 0.000000 -0.000004 25.876488 5.733962 -1.338669 0.000001 0.000003 -3.000091 -5.000211 -7.998855 0.000178 -26.882882 27.674550 34.041403 -117.444283 119.970838 86.701472 -0.000000 -0.000005 0.000006 31.266205 -6.316987 0.902833 -0.000002 0.000003 3.000004 -5.000221 7.998723 -0.000169 -15.693323 192.691412 2.008811 -179.999991 0.000006 -1.133001 158.536463 -1.015350 -1.251191 0.000001 0.000000 0.195121 67.172363 6.816952 2.437509 25.456955 -7.355613 0.000011 -13.858880 -185.551637 1.211258 -0.000005 -0.000003 -1.095550 -20.331976 0.158456 0.659762 0.000000 -0.000002 -0.146933 66.553841 -6.929955 -2.197417 25.456950 7.355613 -0.000001 
50.078804 -10.645114 92.147293 6.377746 -3.769603 -1.052406 -2.362218 0.760071 -0.236974 -0.718770 1.527380 -0.450057 0.926530 1.521891 -0.468327 14.573940 13.196660 1.218513 6.795087 -9.298311 1.494444 -19.298052 -31.355892 -22.954403 -114.844249 -119.076726 -73.507193 0.000003 0.000000 -0.000004 25.081677 5.731100 -1.324626 0.000003 0.000003 -3.000091 -5.000211 -7.998854 0.000175 -26.886106 28.069438 34.011060 -117.144110 119.574633 86.639440 -0.000001 -0.000003 0.000002 31.027739 -6.188580 0.893719 -0.000001 0.000002 3.000002 -5.000223 7.998723 -0.000170 -15.788167 192.544672 2.012644 -179.999991 0.000005 -1.127004 158.400392 -1.115761 -1.275718 0.000002 0.000000 0.202769 67.219457 6.811784 2.447451 25.456955 -7.355613 0.000009 -13.909691 -185.306666 1.257761 -0.000004 -0.000004 -1.090490 -20.474691 0.243948 0.681405 -0.000000 -0.000004 -0.155803 66.603538 -6.923717 -2.209383 25.456950 7.355613 0.000001 
50.090702 -10.645912 92.191101 6.359718 -3.802286 -1.061001 -2.351086 0.758185 -0.235847 -0.696528 1.523528 -0.448012 0.948770 1.518072 -0.466238 14.583132 13.214093 1.219450 6.728370 -9.287763 1.487960 -19.156242 -31.520510 -22.755914 -114.205674 -118.713947 -73.110741 0.000001 -0.000001 -0.000005 24.287277 5.726636 -1.308972 0.000004 0.000001 -3.000091 -5.000213 -7.998853 0.000175 -26.885096 28.470469 33.974908 -116.842912 119.179930 86.593186 -0.000001 -0.000004 0.000004 30.750307 -6.044096 0.877921 -0.000003 0.000003 3.000002 -5.000223 7.998721 -0.000168 -15.880256 192.393342 2.012041 -179.999991 0.000007 -1.121006 158.266603 -1.211338 -1.298819 0.000002 -0.000000 0.210063 67.266278 6.806832 2.456951 25.456953 -7.355613 0.000010 -13.960005 -185.065683 1.303887 -0.000005 -0.000004 -1.085570 -20.614947 0.326676 0.702686 0.000001 -0.000003 -0.164324 66.652039 -6.917685 -2.220975 25.456957 7.355613 -0.000001 
50.133205 -10.641512 92.218201 6.342315 -3.830512 -1.068409 -2.340083 0.755785 -0.234532 -0.674540 1.518645 -0.445609 0.970758 1.513213 -0.463776 14.593860 13.226290 1.219240 6.660098 -9.277105 1.480828 -19.010226 -31.706271 -22.552726 -113.585465 -118.353655 -72.729480 0.000002 -0.000001 -0.000007 23.493373 5.720464 -1.291958 0.000004 0.000003 -3.000091 -5.000213 -7.998853 0.000175 -26.879328 28.878685 33.932240 -116.544624 118.786333 86.571275 -0.000002 -0.000004 0.000006 30.428387 -5.879663 0.855174 -0.000001 0.000000 2.999997 -5.000219 7.998722 -0.000166 -15.969238 192.236521 2.006217 -179.999991 0.000005 -1.114997 158.135873 -1.301188 -1.322071 0.000003 0.000000 0.216976 67.312894 6.802155 2.465627 25.456959 -7.355613 0.000009 -14.010056 -184.830643 1.349982 -0.000004 -0.000004 -1.080780 -20.752140 0.406037 0.723448 0.000001 -0.000003 -0.172467 66.699242 -6.911859 -2.232195 25.456952 7.355613 0.000000 
50.150005 -10.633216 92.228790 6.325940 -3.853515 -1.074372 -2.329272 0.752803 -0.232978 -0.652937 1.512592 -0.442742 0.992360 1.507194 -0.460837 14.606580 13.232351 1.217702 6.589923 -9.266696 1.472972 -18.860049 -31.917098 -22.344764 -112.993609 -117.994851 -72.374501 0.000003 -0.000001 -0.000005 22.699782 5.712532 -1.273812 0.000004 0.000001 -3.000091 -5.000212 -7.998854 0.000178 -26.868542 29.294849 33.882472 -116.254123 118.393338 86.583241 -0.000001 -0.000004 0.000006 30.056514 -5.691371 0.825424 -0.000002 0.000002 3.000002 -5.000221 7.998723 -0.000173 -16.054950 192.071313 1.994846 -179.999991 0.000005 -1.108002 158.008558 -1.384418 -1.344032 0.000001 0.000000 0.223481 67.359230 6.797631 2.473753 25.456959 -7.355613 0.000010 -14.060251 -184.602514 1.396160 -0.000005 -0.000004 -1.076090 -20.885965 0.481428 0.743529 0.000001 -0.000003 -0.180206 66.745066 -6.906297 -2.242763 25.456952 7.355613 0.000001 
50.193302 -10.651711 92.228600 6.310943 -3.870574 -1.078640 -2.318716 0.749166 -0.231132 -0.631853 1.505228 -0.439309 1.013438 1.499866 -0.457314 14.621666 13.231668 1.214629 6.517497 -9.256838 1.464307 -18.705832 -32.157309 -22.132041 -112.440712 -117.636280 -72.057355 0.000004 -0.000002 -0.000006 21.906290 5.702762 -1.254746 0.000004 0.000002 -3.000077 -5.000210 -7.998855 0.000171 -26.852062 29.719929 33.824955 -115.976476 118.000302 86.638702 0.000001 -0.000005 0.000006 29.629180 -5.475285 0.788946 -0.000002 0.000002 3.000000 -5.000220 7.998726 -0.000169 -16.137365 191.898686 1.976523 -179.999991 0.000006 -1.102004 157.885232 -1.461038 -1.364620 0.000003 0.000000 0.229551 67.405033 6.793444 2.481187 25.456950 -7.355612 0.000009 -14.110851 -184.380301 1.442044 -0.000005 -0.000003 -1.071510 -21.016017 0.552248 0.762757 0.000001 -0.000004 -0.187516 66.789462 -6.900930 -2.253065 25.456955 7.355613 -0.000000 
50.211105 -10.640711 92.223190 6.297539 -3.883157 -1.080931 -2.308495 0.745027 -0.229175 -0.611456 1.496845 -0.435662 1.033840 1.491538 -0.453569 14.639179 13.225308 1.210204 6.443527 -9.247266 1.454975 -18.543373 -32.422222 -21.907936 -111.897172 -117.271657 -71.768766 0.000001 -0.000002 -0.000006 21.096120 5.675478 -1.230514 0.000004 0.000002 -3.000082 -5.000211 -7.998854 0.000172 -26.830284 30.154093 33.759501 -115.711109 117.607825 86.735882 0.000001 -0.000004 0.000005 29.136132 -5.232921 0.747972 -0.000002 0.000002 3.000004 -5.000221 7.998721 -0.000169 -16.218911 191.719517 1.950888 -179.999991 0.000006 -1.095994 157.761852 -1.530104 -1.383510 0.000003 0.000000 0.235195 67.453241 6.789538 2.487432 25.456955 -7.355612 0.000009 -14.159337 -184.164030 1.487106 -0.000004 -0.000004 -1.066920 -21.135804 0.622044 0.781335 0.000000 -0.000003 -0.194136 66.829945 -6.895735 -2.263054 25.456959 7.355611 -0.000001 
50.208305 -10.621310 92.224098 6.285477 -3.893517 -1.081369 -2.298612 0.740609 -0.227337 -0.591724 1.487921 -0.432247 1.053563 1.482650 -0.450046 14.658930 13.215130 1.204816 6.369141 -9.237299 1.445210 -18.368517 -32.702488 -21.666082 -111.323184 -116.896625 -71.485450 0.000002 -0.000001 -0.000003 20.254573 5.616528 -1.198051 0.000003 0.000001 -3.000082 -5.000213 -7.998853 0.000173 -26.804034 30.596474 33.686855 -115.453474 117.216988 86.863621 0.000000 -0.000005 0.000005 28.575095 -4.970447 0.705624 -0.000002 0.000001 3.000003 -5.000222 7.998723 -0.000173 -16.302425 191.536509 1.918370 -179.999991 0.000006 -1.089001 157.633990 -1.593456 -1.401560 0.000003 -0.000000 0.240460 67.506031 6.785986 2.492367 25.456952 -7.355613 0.000010 -14.203309 -183.948906 1.529913 -0.000004 -0.000004 -1.062230 -21.239832 0.694742 0.799604 0.000000 -0.000003 -0.199868 66.864280 -6.890624 -2.273246 25.456955 7.355612 0.000002 
